<svg width="19" height="22" viewBox="0 0 19 22" fill="none" xmlns="http://www.w3.org/2000/svg">
<path d="M2.58019 21.586C2.23472 21.5853 1.89537 21.4948 1.59551 21.3232C0.920304 20.9406 0.500549 20.1979 0.500549 19.3916V3.07401C0.500549 2.26545 0.920304 1.52497 1.59551 1.14235C1.90251 0.96592 2.25126 0.875188 2.60532 0.879643C2.95938 0.884097 3.30574 0.983573 3.6082 1.16767L17.5541 9.51551C17.8447 9.69775 18.0843 9.95082 18.2504 10.251C18.4165 10.5512 18.5036 10.8886 18.5036 11.2317C18.5036 11.5747 18.4165 11.9122 18.2504 12.2123C18.0843 12.5125 17.8447 12.7656 17.5541 12.9478L3.60595 21.2979C3.29642 21.485 2.94189 21.5846 2.58019 21.586V21.586Z" fill="#E1E1E6"/>
</svg>
