<svg width="28" height="17" viewBox="0 0 28 17" fill="none" xmlns="http://www.w3.org/2000/svg">
<path d="M1.59799 6.73974L12.2252 0.381522C12.4881 0.221553 12.7892 0.135124 13.0969 0.131263C13.4046 0.127403 13.7077 0.206254 13.9746 0.359578C14.2641 0.528176 14.5038 0.770393 14.6695 1.06163C14.8351 1.35287 14.9207 1.68275 14.9176 2.01778V6.46572L25.0862 0.379834C25.3492 0.219865 25.6502 0.133436 25.9579 0.129576C26.2656 0.125715 26.5688 0.204566 26.8356 0.35789C27.1251 0.526488 27.3649 0.768705 27.5305 1.05994C27.6961 1.35118 27.7818 1.68106 27.7786 2.01609V14.4512C27.7819 14.7863 27.6964 15.1163 27.5307 15.4077C27.3651 15.699 27.1253 15.9413 26.8356 16.1099C26.5688 16.2633 26.2656 16.3421 25.9579 16.3383C25.6502 16.3344 25.3492 16.248 25.0862 16.088L14.9176 9.99931V14.4489C14.9213 14.7844 14.8359 15.1149 14.6703 15.4067C14.5046 15.6985 14.2646 15.9412 13.9746 16.1099C13.7077 16.2633 13.4046 16.3421 13.0969 16.3383C12.7892 16.3344 12.4881 16.248 12.2252 16.088L1.59799 9.72979C1.34535 9.57153 1.13707 9.35167 0.992682 9.09086C0.848299 8.83004 0.772552 8.53681 0.772552 8.2387C0.772552 7.94059 0.848299 7.64736 0.992682 7.38654C1.13707 7.12573 1.34535 6.90587 1.59799 6.74761V6.73974Z" fill="#E1E1E6"/>
</svg>
