<svg width="28" height="17" viewBox="0 0 28 17" fill="none" xmlns="http://www.w3.org/2000/svg">
<path d="M26.4014 6.73974L15.7742 0.381522C15.5113 0.221553 15.2103 0.135124 14.9025 0.131263C14.5948 0.127403 14.2917 0.206254 14.0249 0.359578C13.7353 0.528176 13.4956 0.770393 13.3299 1.06163C13.1643 1.35287 13.0787 1.68275 13.0818 2.01778V6.46572L2.91317 0.379834C2.65026 0.219865 2.34922 0.133436 2.04149 0.129576C1.73377 0.125715 1.43065 0.204566 1.16382 0.35789C0.874287 0.526488 0.634533 0.768705 0.468902 1.05994C0.303272 1.35118 0.217664 1.68106 0.220775 2.01609V14.4512C0.217565 14.7863 0.303125 15.1163 0.46876 15.4077C0.634396 15.699 0.874204 15.9413 1.16382 16.1099C1.43065 16.2633 1.73377 16.3421 2.04149 16.3383C2.34922 16.3344 2.65026 16.248 2.91317 16.088L13.0818 9.99931V14.4489C13.0782 14.7844 13.1636 15.1149 13.3292 15.4067C13.4949 15.6985 13.7349 15.9411 14.0249 16.1099C14.2917 16.2633 14.5948 16.3421 14.9025 16.3383C15.2103 16.3344 15.5113 16.248 15.7742 16.088L26.4014 9.72979C26.6541 9.57153 26.8624 9.35167 27.0067 9.09086C27.1511 8.83004 27.2269 8.53681 27.2269 8.2387C27.2269 7.94059 27.1511 7.64736 27.0067 7.38654C26.8624 7.12573 26.6541 6.90587 26.4014 6.74761V6.73974Z" fill="#E1E1E6"/>
</svg>
