<svg width="30" height="30" viewBox="0 0 30 30" fill="none" xmlns="http://www.w3.org/2000/svg">
<path d="M2.59799 13.7397L13.2252 7.38152C13.4881 7.22155 13.7892 7.13512 14.0969 7.13126C14.4046 7.1274 14.7077 7.20625 14.9746 7.35958C15.2641 7.52818 15.5038 7.77039 15.6695 8.06163C15.8351 8.35287 15.9207 8.68275 15.9176 9.01778V13.4657L26.0862 7.37983C26.3492 7.21987 26.6502 7.13344 26.9579 7.12958C27.2656 7.12572 27.5688 7.20457 27.8356 7.35789C28.1251 7.52649 28.3649 7.76871 28.5305 8.05994C28.6961 8.35118 28.7818 8.68106 28.7786 9.01609V21.4512C28.7819 21.7863 28.6964 22.1163 28.5307 22.4077C28.3651 22.699 28.1253 22.9413 27.8356 23.1099C27.5688 23.2633 27.2656 23.3421 26.9579 23.3383C26.6502 23.3344 26.3492 23.248 26.0862 23.088L15.9176 16.9993V21.4489C15.9213 21.7844 15.8359 22.1149 15.6703 22.4067C15.5046 22.6985 15.2646 22.9412 14.9746 23.1099C14.7077 23.2633 14.4046 23.3421 14.0969 23.3383C13.7892 23.3344 13.4881 23.248 13.2252 23.088L2.59799 16.7298C2.34535 16.5715 2.13707 16.3517 1.99268 16.0909C1.8483 15.83 1.77255 15.5368 1.77255 15.2387C1.77255 14.9406 1.8483 14.6474 1.99268 14.3865C2.13707 14.1257 2.34535 13.9059 2.59799 13.7476V13.7397Z" fill="#E1E1E6"/>
</svg>
