<svg width="29" height="30" viewBox="0 0 29 30" fill="none" xmlns="http://www.w3.org/2000/svg">
<path d="M7.58019 25.586C7.23472 25.5853 6.89537 25.4948 6.59551 25.3232C5.9203 24.9406 5.50055 24.1979 5.50055 23.3916V7.07401C5.50055 6.26545 5.9203 5.52497 6.59551 5.14235C6.90251 4.96592 7.25126 4.87519 7.60532 4.87964C7.95938 4.8841 8.30574 4.98357 8.6082 5.16767L22.5541 13.5155C22.8447 13.6978 23.0843 13.9508 23.2504 14.251C23.4165 14.5512 23.5036 14.8886 23.5036 15.2317C23.5036 15.5747 23.4165 15.9122 23.2504 16.2123C23.0843 16.5125 22.8447 16.7656 22.5541 16.9478L8.60595 25.2979C8.29642 25.485 7.94189 25.5846 7.58019 25.586Z" fill="#E1E1E6"/>
</svg>
