<svg width="30" height="30" viewBox="0 0 30 30" fill="none" xmlns="http://www.w3.org/2000/svg">
<path d="M27.4014 13.7397L16.7742 7.38152C16.5113 7.22155 16.2103 7.13512 15.9025 7.13126C15.5948 7.1274 15.2917 7.20625 15.0248 7.35958C14.7353 7.52818 14.4956 7.77039 14.3299 8.06163C14.1643 8.35287 14.0787 8.68275 14.0818 9.01778V13.4657L3.91316 7.37983C3.65026 7.21987 3.34921 7.13344 3.04149 7.12958C2.73376 7.12572 2.43065 7.20457 2.16381 7.35789C1.87428 7.52649 1.63453 7.76871 1.46889 8.05994C1.30326 8.35118 1.21766 8.68106 1.22077 9.01609V21.4512C1.21756 21.7863 1.30312 22.1163 1.46875 22.4077C1.63439 22.699 1.8742 22.9413 2.16381 23.1099C2.43065 23.2633 2.73376 23.3421 3.04149 23.3383C3.34921 23.3344 3.65026 23.248 3.91316 23.088L14.0818 16.9993V21.4489C14.0782 21.7844 14.1636 22.1149 14.3292 22.4067C14.4949 22.6985 14.7349 22.9411 15.0248 23.1099C15.2917 23.2633 15.5948 23.3421 15.9025 23.3383C16.2103 23.3344 16.5113 23.248 16.7742 23.088L27.4014 16.7298C27.6541 16.5715 27.8623 16.3517 28.0067 16.0909C28.1511 15.83 28.2269 15.5368 28.2269 15.2387C28.2269 14.9406 28.1511 14.6474 28.0067 14.3865C27.8623 14.1257 27.6541 13.9059 27.4014 13.7476V13.7397Z" fill="#E1E1E6"/>
</svg>
